<svg xmlns="http://www.w3.org/2000/svg" viewBox="0 0 512 512">
  <defs>
    <linearGradient id="g" x1="0" y1="0" x2="1" y2="1">
      <stop offset="0" stop-color="#020617"/>
      <stop offset="0.55" stop-color="#064e3b"/>
      <stop offset="1" stop-color="#10b981"/>
    </linearGradient>
  </defs>
  <rect width="512" height="512" rx="116" fill="url(#g)"/>
  <circle cx="256" cy="256" r="176" fill="none" stroke="#d1fae5" stroke-width="18" opacity="0.34"/>
  <path d="M356 139c-41 12-72 34-92 65-20-31-51-53-92-65v214c41 11 72 31 92 60 20-29 51-49 92-60V139z" fill="#ecfdf5"/>
  <path d="M256 203c-15 35-8 73 22 103-37-4-69-24-90-57 14 76 77 125 148 117-69 42-158 20-200-47-42-67-22-155 46-197 22-14 48-22 74-23z" fill="#10b981" opacity="0.92"/>
  <text x="256" y="392" text-anchor="middle" font-family="Arial, sans-serif" font-size="42" font-weight="900" fill="#ecfdf5">NOOR</text>
</svg>
