<svg xmlns="http://www.w3.org/2000/svg" viewBox="0 0 512 512" role="img" aria-label="NoorQuran logo">
  <defs>
    <linearGradient id="bg" x1="80" y1="40" x2="440" y2="480" gradientUnits="userSpaceOnUse">
      <stop offset="0" stop-color="#10B981"/>
      <stop offset="0.48" stop-color="#064E3B"/>
      <stop offset="1" stop-color="#020617"/>
    </linearGradient>
    <linearGradient id="gold" x1="120" y1="90" x2="390" y2="430" gradientUnits="userSpaceOnUse">
      <stop offset="0" stop-color="#FDE68A"/>
      <stop offset="1" stop-color="#D97706"/>
    </linearGradient>
    <filter id="shadow" x="-30%" y="-30%" width="160%" height="160%">
      <feDropShadow dx="0" dy="16" stdDeviation="18" flood-color="#000000" flood-opacity="0.35"/>
    </filter>
  </defs>
  <rect width="512" height="512" rx="118" fill="url(#bg)"/>
  <circle cx="398" cy="102" r="78" fill="#FFFFFF" opacity="0.08"/>
  <circle cx="130" cy="412" r="90" fill="#10B981" opacity="0.10"/>
  <path d="M344 116c-76 15-133 82-133 162 0 55 27 104 68 134-81-10-144-79-144-162 0-90 73-164 164-164 16 0 31 2 45 6z" fill="url(#gold)" filter="url(#shadow)"/>
  <path d="M150 334c40-28 73-38 106-35 33-3 66 7 106 35v53c-43-31-75-42-106-39-31-3-63 8-106 39v-53z" fill="#F8FAFC" opacity="0.95"/>
  <path d="M256 299v49" stroke="#064E3B" stroke-width="10" stroke-linecap="round" opacity="0.8"/>
  <path d="M166 335c35-18 63-25 90-22 27-3 55 4 90 22" fill="none" stroke="#D1FAE5" stroke-width="10" stroke-linecap="round"/>
  <text x="256" y="226" text-anchor="middle" font-size="92" font-family="Georgia, 'Times New Roman', serif" font-weight="700" fill="#F8FAFC">ن</text>
</svg>
